<mxfile host="app.diagrams.net" agent="Mozilla/5.0 (Macintosh; Intel Mac OS X 10_15_7) AppleWebKit/605.1.15 (KHTML, like Gecko) Version/17.5 Safari/605.1.15" version="24.7.8">
  <diagram name="Page-1" id="pXa8NJj6rU8fB-rWXXvz">
    <mxGraphModel dx="562" dy="381" grid="1" gridSize="10" guides="1" tooltips="1" connect="1" arrows="1" fold="1" page="1" pageScale="1" pageWidth="827" pageHeight="1169" math="0" shadow="0">
      <root>
        <mxCell id="0" />
        <mxCell id="1" parent="0" />
        <UserObject label="&lt;a style=&quot;font-style: normal; font-variant-caps: normal; font-weight: 400; letter-spacing: normal; orphans: auto; text-indent: 0px; text-transform: none; white-space: nowrap; widows: auto; word-spacing: 0px; -webkit-text-stroke-width: 0px; box-sizing: border-box; background-color: transparent; text-decoration: none; caret-color: rgb(31, 35, 40); font-family: -apple-system, BlinkMacSystemFont, &amp;quot;Segoe UI&amp;quot;, &amp;quot;Noto Sans&amp;quot;, Helvetica, Arial, sans-serif, &amp;quot;Apple Color Emoji&amp;quot;, &amp;quot;Segoe UI Emoji&amp;quot;; font-size: 14px; text-align: left; color: var(--fgColor-default) !important;&quot; href=&quot;https://github.com/jahra5ta/learning/blob/main/cron_serv&quot; class=&quot;Link--primary&quot; aria-label=&quot;cron_serv, (File)&quot; title=&quot;cron_serv&quot;&gt;C&lt;/a&gt;lient" link="&lt;a style=&quot;font-style: normal; font-variant-caps: normal; font-weight: 400; letter-spacing: normal; orphans: auto; text-indent: 0px; text-transform: none; white-space: nowrap; widows: auto; word-spacing: 0px; -webkit-text-stroke-width: 0px; box-sizing: border-box; background-color: transparent; text-decoration: none; caret-color: rgb(31, 35, 40); font-family: -apple-system, BlinkMacSystemFont, &amp;quot;Segoe UI&amp;quot;, &amp;quot;Noto Sans&amp;quot;, Helvetica, Arial, sans-serif, &amp;quot;Apple Color Emoji&amp;quot;, &amp;quot;Segoe UI Emoji&amp;quot;; font-size: 14px; text-align: left; color: var(--fgColor-default) !important;&quot; href=&quot;https://github.com/jahra5ta/learning/blob/main/cron_serv&quot; class=&quot;Link--primary&quot; aria-label=&quot;cron_serv, (File)&quot; title=&quot;cron_serv&quot;&gt;cron_serv&lt;/a&gt;" id="MXprLbCmQsb3lzFEbMJv-1">
          <mxCell style="rounded=1;whiteSpace=wrap;html=1;" vertex="1" parent="1">
            <mxGeometry x="160" y="240" width="120" height="40" as="geometry" />
          </mxCell>
        </UserObject>
        <UserObject label="VPN SERVER&lt;div&gt;&lt;span style=&quot;text-align: start; caret-color: rgba(0, 0, 0, 0.85); color: rgba(0, 0, 0, 0.85); font-family: &amp;quot;YS Text&amp;quot;, &amp;quot;Helvetica Neue&amp;quot;, Arial, Helvetica, sans-serif; white-space: pre; background-color: rgb(255, 255, 255);&quot;&gt;&lt;font style=&quot;font-size: 10px;&quot;&gt;89.169.163.133&lt;/font&gt;&lt;/span&gt;&lt;br&gt;&lt;/div&gt;" link="&lt;a style=&quot;font-style: normal; font-variant-caps: normal; font-weight: 400; letter-spacing: normal; orphans: auto; text-indent: 0px; text-transform: none; white-space: nowrap; widows: auto; word-spacing: 0px; -webkit-text-stroke-width: 0px; box-sizing: border-box; background-color: transparent; text-decoration: none; caret-color: rgb(31, 35, 40); font-family: -apple-system, BlinkMacSystemFont, &amp;quot;Segoe UI&amp;quot;, &amp;quot;Noto Sans&amp;quot;, Helvetica, Arial, sans-serif, &amp;quot;Apple Color Emoji&amp;quot;, &amp;quot;Segoe UI Emoji&amp;quot;; font-size: 14px; text-align: left; color: var(--fgColor-default) !important;&quot; href=&quot;https://github.com/jahra5ta/learning/blob/main/cron_serv&quot; class=&quot;Link--primary&quot; aria-label=&quot;cron_serv, (File)&quot; title=&quot;cron_serv&quot;&gt;cron_serv&lt;/a&gt;" id="MXprLbCmQsb3lzFEbMJv-2">
          <mxCell style="rounded=1;whiteSpace=wrap;html=1;" vertex="1" parent="1">
            <mxGeometry x="360" y="240" width="120" height="40" as="geometry" />
          </mxCell>
        </UserObject>
        <UserObject label="CA SERVER&lt;div&gt;&lt;span style=&quot;text-align: start; caret-color: rgba(0, 0, 0, 0.85); color: rgba(0, 0, 0, 0.85); font-family: &amp;quot;YS Text&amp;quot;, &amp;quot;Helvetica Neue&amp;quot;, Arial, Helvetica, sans-serif; white-space: pre; background-color: rgb(255, 255, 255);&quot;&gt;&lt;font style=&quot;font-size: 10px;&quot;&gt;51.250.103.226&lt;/font&gt;&lt;/span&gt;&lt;br&gt;&lt;/div&gt;" link="&lt;a style=&quot;font-style: normal; font-variant-caps: normal; font-weight: 400; letter-spacing: normal; orphans: auto; text-indent: 0px; text-transform: none; white-space: nowrap; widows: auto; word-spacing: 0px; -webkit-text-stroke-width: 0px; box-sizing: border-box; background-color: transparent; text-decoration: none; caret-color: rgb(31, 35, 40); font-family: -apple-system, BlinkMacSystemFont, &amp;quot;Segoe UI&amp;quot;, &amp;quot;Noto Sans&amp;quot;, Helvetica, Arial, sans-serif, &amp;quot;Apple Color Emoji&amp;quot;, &amp;quot;Segoe UI Emoji&amp;quot;; font-size: 14px; text-align: left; color: var(--fgColor-default) !important;&quot; href=&quot;https://github.com/jahra5ta/learning/blob/main/cron_serv&quot; class=&quot;Link--primary&quot; aria-label=&quot;cron_serv, (File)&quot; title=&quot;cron_serv&quot;&gt;cron_serv&lt;/a&gt;" id="MXprLbCmQsb3lzFEbMJv-3">
          <mxCell style="rounded=1;whiteSpace=wrap;html=1;" vertex="1" parent="1">
            <mxGeometry x="360" y="320" width="120" height="40" as="geometry" />
          </mxCell>
        </UserObject>
        <UserObject label="Internet" link="&lt;a style=&quot;font-style: normal; font-variant-caps: normal; font-weight: 400; letter-spacing: normal; orphans: auto; text-indent: 0px; text-transform: none; white-space: nowrap; widows: auto; word-spacing: 0px; -webkit-text-stroke-width: 0px; box-sizing: border-box; background-color: transparent; text-decoration: none; caret-color: rgb(31, 35, 40); font-family: -apple-system, BlinkMacSystemFont, &amp;quot;Segoe UI&amp;quot;, &amp;quot;Noto Sans&amp;quot;, Helvetica, Arial, sans-serif, &amp;quot;Apple Color Emoji&amp;quot;, &amp;quot;Segoe UI Emoji&amp;quot;; font-size: 14px; text-align: left; color: var(--fgColor-default) !important;&quot; href=&quot;https://github.com/jahra5ta/learning/blob/main/cron_serv&quot; class=&quot;Link--primary&quot; aria-label=&quot;cron_serv, (File)&quot; title=&quot;cron_serv&quot;&gt;cron_serv&lt;/a&gt;" id="MXprLbCmQsb3lzFEbMJv-4">
          <mxCell style="rounded=1;whiteSpace=wrap;html=1;" vertex="1" parent="1">
            <mxGeometry x="560" y="240" width="120" height="40" as="geometry" />
          </mxCell>
        </UserObject>
        <UserObject label="ALERTING SERVER" link="&lt;a style=&quot;font-style: normal; font-variant-caps: normal; font-weight: 400; letter-spacing: normal; orphans: auto; text-indent: 0px; text-transform: none; white-space: nowrap; widows: auto; word-spacing: 0px; -webkit-text-stroke-width: 0px; box-sizing: border-box; background-color: transparent; text-decoration: none; caret-color: rgb(31, 35, 40); font-family: -apple-system, BlinkMacSystemFont, &amp;quot;Segoe UI&amp;quot;, &amp;quot;Noto Sans&amp;quot;, Helvetica, Arial, sans-serif, &amp;quot;Apple Color Emoji&amp;quot;, &amp;quot;Segoe UI Emoji&amp;quot;; font-size: 14px; text-align: left; color: var(--fgColor-default) !important;&quot; href=&quot;https://github.com/jahra5ta/learning/blob/main/cron_serv&quot; class=&quot;Link--primary&quot; aria-label=&quot;cron_serv, (File)&quot; title=&quot;cron_serv&quot;&gt;cron_serv&lt;/a&gt;" id="MXprLbCmQsb3lzFEbMJv-5">
          <mxCell style="rounded=1;whiteSpace=wrap;html=1;" vertex="1" parent="1">
            <mxGeometry x="360" y="400" width="120" height="40" as="geometry" />
          </mxCell>
        </UserObject>
        <UserObject label="ADMIN" link="&lt;a style=&quot;font-style: normal; font-variant-caps: normal; font-weight: 400; letter-spacing: normal; orphans: auto; text-indent: 0px; text-transform: none; white-space: nowrap; widows: auto; word-spacing: 0px; -webkit-text-stroke-width: 0px; box-sizing: border-box; background-color: transparent; text-decoration: none; caret-color: rgb(31, 35, 40); font-family: -apple-system, BlinkMacSystemFont, &amp;quot;Segoe UI&amp;quot;, &amp;quot;Noto Sans&amp;quot;, Helvetica, Arial, sans-serif, &amp;quot;Apple Color Emoji&amp;quot;, &amp;quot;Segoe UI Emoji&amp;quot;; font-size: 14px; text-align: left; color: var(--fgColor-default) !important;&quot; href=&quot;https://github.com/jahra5ta/learning/blob/main/cron_serv&quot; class=&quot;Link--primary&quot; aria-label=&quot;cron_serv, (File)&quot; title=&quot;cron_serv&quot;&gt;cron_serv&lt;/a&gt;" id="MXprLbCmQsb3lzFEbMJv-6">
          <mxCell style="rounded=1;whiteSpace=wrap;html=1;" vertex="1" parent="1">
            <mxGeometry x="160" y="400" width="120" height="40" as="geometry" />
          </mxCell>
        </UserObject>
        <mxCell id="MXprLbCmQsb3lzFEbMJv-7" value="" style="endArrow=classic;startArrow=classic;html=1;rounded=0;entryX=0;entryY=0.5;entryDx=0;entryDy=0;" edge="1" parent="1" target="MXprLbCmQsb3lzFEbMJv-5">
          <mxGeometry width="50" height="50" relative="1" as="geometry">
            <mxPoint x="280" y="420" as="sourcePoint" />
            <mxPoint x="330" y="370" as="targetPoint" />
          </mxGeometry>
        </mxCell>
        <mxCell id="MXprLbCmQsb3lzFEbMJv-8" value="TCP 9090" style="edgeLabel;html=1;align=center;verticalAlign=middle;resizable=0;points=[];" vertex="1" connectable="0" parent="MXprLbCmQsb3lzFEbMJv-7">
          <mxGeometry x="0.15" y="-2" relative="1" as="geometry">
            <mxPoint x="-6" y="-2" as="offset" />
          </mxGeometry>
        </mxCell>
        <mxCell id="MXprLbCmQsb3lzFEbMJv-9" value="" style="endArrow=classic;startArrow=classic;html=1;rounded=0;entryX=0;entryY=0.5;entryDx=0;entryDy=0;" edge="1" parent="1" target="MXprLbCmQsb3lzFEbMJv-2">
          <mxGeometry width="50" height="50" relative="1" as="geometry">
            <mxPoint x="280" y="260" as="sourcePoint" />
            <mxPoint x="330" y="210" as="targetPoint" />
          </mxGeometry>
        </mxCell>
        <mxCell id="MXprLbCmQsb3lzFEbMJv-12" value="UDP 1194" style="edgeLabel;html=1;align=center;verticalAlign=middle;resizable=0;points=[];" vertex="1" connectable="0" parent="MXprLbCmQsb3lzFEbMJv-9">
          <mxGeometry x="0.2" y="1" relative="1" as="geometry">
            <mxPoint x="-8" y="1" as="offset" />
          </mxGeometry>
        </mxCell>
        <mxCell id="MXprLbCmQsb3lzFEbMJv-13" value="" style="endArrow=classic;html=1;rounded=0;entryX=0.25;entryY=1;entryDx=0;entryDy=0;exitX=0.25;exitY=0;exitDx=0;exitDy=0;startArrow=classic;startFill=1;" edge="1" parent="1" source="MXprLbCmQsb3lzFEbMJv-5" target="MXprLbCmQsb3lzFEbMJv-2">
          <mxGeometry relative="1" as="geometry">
            <mxPoint x="390" y="390" as="sourcePoint" />
            <mxPoint x="530" y="390" as="targetPoint" />
            <Array as="points">
              <mxPoint x="390" y="380" />
              <mxPoint x="340" y="380" />
              <mxPoint x="340" y="300" />
              <mxPoint x="390" y="300" />
            </Array>
          </mxGeometry>
        </mxCell>
        <mxCell id="MXprLbCmQsb3lzFEbMJv-14" value="TCP 9100" style="edgeLabel;resizable=0;html=1;;align=center;verticalAlign=middle;" connectable="0" vertex="1" parent="MXprLbCmQsb3lzFEbMJv-13">
          <mxGeometry relative="1" as="geometry">
            <mxPoint x="-10" as="offset" />
          </mxGeometry>
        </mxCell>
        <mxCell id="MXprLbCmQsb3lzFEbMJv-15" value="" style="endArrow=classic;html=1;rounded=0;entryX=0.675;entryY=0.98;entryDx=0;entryDy=0;entryPerimeter=0;startArrow=classic;startFill=1;" edge="1" parent="1" target="MXprLbCmQsb3lzFEbMJv-3">
          <mxGeometry relative="1" as="geometry">
            <mxPoint x="440" y="400" as="sourcePoint" />
            <mxPoint x="440" y="370" as="targetPoint" />
          </mxGeometry>
        </mxCell>
        <mxCell id="MXprLbCmQsb3lzFEbMJv-16" value="TCP 9100" style="edgeLabel;resizable=0;html=1;;align=center;verticalAlign=middle;" connectable="0" vertex="1" parent="MXprLbCmQsb3lzFEbMJv-15">
          <mxGeometry relative="1" as="geometry" />
        </mxCell>
        <mxCell id="MXprLbCmQsb3lzFEbMJv-18" value="" style="endArrow=classic;html=1;rounded=0;exitX=1;exitY=0.5;exitDx=0;exitDy=0;startArrow=classic;startFill=1;" edge="1" parent="1" source="MXprLbCmQsb3lzFEbMJv-2">
          <mxGeometry relative="1" as="geometry">
            <mxPoint x="490" y="259.76" as="sourcePoint" />
            <mxPoint x="560" y="260" as="targetPoint" />
          </mxGeometry>
        </mxCell>
        <mxCell id="MXprLbCmQsb3lzFEbMJv-19" value="TCP 80&lt;div&gt;TCP 443&lt;/div&gt;" style="edgeLabel;resizable=0;html=1;;align=center;verticalAlign=middle;" connectable="0" vertex="1" parent="MXprLbCmQsb3lzFEbMJv-18">
          <mxGeometry relative="1" as="geometry" />
        </mxCell>
      </root>
    </mxGraphModel>
  </diagram>
</mxfile>
